<?xml version="1.0" encoding="utf-8"?>
<!-- Generator: Adobe Illustrator 21.0.0, SVG Export Plug-In . SVG Version: 6.00 Build 0)  -->
<svg version="1.1" id="Layer_1" xmlns="http://www.w3.org/2000/svg" xmlns:xlink="http://www.w3.org/1999/xlink" x="0px" y="0px"
	 viewBox="0 0 800 800" style="enable-background:new 0 0 800 800;" xml:space="preserve">
<style type="text/css">
	.st0{fill:url(#SVGID_1_);}
	.st1{fill:url(#SVGID_2_);}
	.st2{fill:url(#SVGID_3_);}
	.st3{fill:#272727;}
	.st4{fill:#919191;}
	.st5{fill:url(#SVGID_4_);}
	.st6{fill:url(#SVGID_5_);}
	.st7{fill:url(#SVGID_6_);}
	.st8{fill:url(#SVGID_7_);}
	.st9{fill:url(#SVGID_8_);}
	.st10{fill:url(#SVGID_9_);}
	.st11{fill:url(#SVGID_10_);}
	.st12{fill:url(#SVGID_11_);}
</style>
<g>
	<linearGradient id="SVGID_1_" gradientUnits="userSpaceOnUse" x1="342.9577" y1="82.0841" x2="456.9577" y2="255.0841">
		<stop  offset="0.1148" style="stop-color:#A8A8A8"/>
		<stop  offset="0.7417" style="stop-color:#231F20"/>
	</linearGradient>
	<polygon class="st0" points="376.2,224.1 554.7,224.1 441.2,134.1 259.2,134.1 	"/>
	<g>
		<linearGradient id="SVGID_2_" gradientUnits="userSpaceOnUse" x1="304.138" y1="365.9204" x2="557.4713" y2="314.5871">
			<stop  offset="0.2809" style="stop-color:#FDC546"/>
			<stop  offset="0.7916" style="stop-color:#BE603C"/>
		</linearGradient>
		<polygon class="st1" points="554.7,292.6 554.7,236.1 441.2,236.1 384.7,236.1 384.7,451.6 441.2,451.6 441.2,372.6 554.7,372.6 
			554.7,316.1 441.2,316.1 441.2,292.6 		"/>
		<linearGradient id="SVGID_3_" gradientUnits="userSpaceOnUse" x1="166.3989" y1="320.7847" x2="405.8033" y2="285.3421">
			<stop  offset="0.2809" style="stop-color:#FDC546"/>
			<stop  offset="0.8876" style="stop-color:#C3603C"/>
		</linearGradient>
		<polygon class="st2" points="331.2,285.6 292.7,255.1 292.2,174.9 256.2,146.6 256.2,361.6 293.2,394.6 293.2,313.1 330.2,343.9 
			330.2,421.6 369.2,451.6 369.2,233.4 331.2,203.9 		"/>
	</g>
	<g>
		<path class="st3" d="M176.6,501.5V546h51.3v-44.5H250v111.1h-22.1v-49h-51.3v49h-22.1V501.5H176.6z"/>
		<path class="st3" d="M299,612.6v-46.3l-38.3-64.8h25.2l14.6,28.5c4.1,8.2,7.2,14.5,10.4,22.1h0.4c3.1-7.1,6.5-14,10.6-22.1
			l14.6-28.5h25l-40.3,64.3v46.8H299z"/>
		<path class="st3" d="M371,503c7.9-1.3,18.9-2.3,33.8-2.3c16.2,0,28.1,3.1,35.8,9.1c7.2,5.4,11.9,14.2,11.9,24.6
			c0,10.5-3.6,19.3-10.4,25.2c-8.8,8.1-22.7,11.9-38.3,11.9c-4.1,0-7.9-0.2-10.8-0.7v41.9h-22V503z M392.9,554.7
			c2.7,0.7,6.3,0.8,10.8,0.8c16.6,0,26.6-7.4,26.6-20.4c0-12.4-9.4-19-24.7-19c-6.1,0-10.4,0.5-12.8,1V554.7z"/>
		<path class="st3" d="M537.8,563.3h-45.7v32.6h51.1v16.6H470V501.5h70.6v16.6h-48.4v28.7h45.7V563.3z"/>
		<path class="st3" d="M561,503c8.3-1.3,20.7-2.3,33.5-2.3c17.5,0,29.3,2.6,37.4,8.9c6.7,5.1,10.4,12.9,10.4,22.3
			c0,14.3-10.6,24.1-22,27.9v0.5c8.6,3,13.9,10.7,16.9,21.4c3.8,13.8,7,26.7,9.5,31H624c-1.8-3.3-4.7-12.4-8.1-26.2
			c-3.4-14.5-9.2-19.1-21.8-19.4H583v45.7h-22V503z M583,552.1h13.1c14.9,0,24.3-7.3,24.3-18.3c0-12.2-9.4-17.8-23.8-17.8
			c-7,0-11.5,0.5-13.7,1V552.1z"/>
	</g>
	<g>
		<path class="st4" d="M234.9,635.1h19.5v4.6h-13.4v8.6h12.5v4.6h-12.5v13.2h-6.2V635.1z"/>
		<path class="st4" d="M286.7,635.1v31h-6.2v-31H286.7z"/>
		<path class="st4" d="M313.8,666.1v-31h7l8.7,13.3c2.3,3.5,4.2,7,5.8,10.4h0.1c-0.4-4.1-0.6-8.1-0.6-12.9v-10.8h5.7v31h-6.4
			l-8.8-13.6c-2.2-3.4-4.4-7.2-6.1-10.7l-0.2,0c0.3,4,0.3,8.1,0.3,13.2v11.1H313.8z"/>
		<path class="st4" d="M374,635.1v31h-6.2v-31H374z"/>
		<path class="st4" d="M407.6,639.9h-9.6v-4.7h25.6v4.7h-9.7v26.3h-6.2V639.9z"/>
		<path class="st4" d="M453.7,635.1v31h-6.2v-31H453.7z"/>
		<path class="st4" d="M510.9,650.3c0,10.4-6.9,16.3-16.2,16.3c-9.5,0-15.6-6.7-15.6-15.8c0-9.5,6.5-16.2,16.1-16.2
			C505,634.6,510.9,641.5,510.9,650.3z M485.6,650.8c0,6.3,3.5,11.3,9.4,11.3c6,0,9.3-5.1,9.3-11.5c0-5.8-3.2-11.4-9.3-11.4
			C488.9,639.2,485.6,644.4,485.6,650.8z"/>
		<path class="st4" d="M536.2,666.1v-31h7l8.7,13.3c2.3,3.5,4.2,7,5.8,10.4h0.1c-0.4-4.1-0.6-8.1-0.6-12.9v-10.8h5.7v31h-6.4
			l-8.8-13.6c-2.2-3.4-4.4-7.2-6.1-10.7l-0.2,0c0.3,4,0.3,8.1,0.3,13.2v11.1H536.2z"/>
	</g>
	<linearGradient id="SVGID_4_" gradientUnits="userSpaceOnUse" x1="444.3562" y1="377.1971" x2="605.6896" y2="329.1971">
		<stop  offset="0.2809" style="stop-color:#FDC546"/>
		<stop  offset="0.8876" style="stop-color:#D4783C"/>
	</linearGradient>
	<polygon class="st5" points="441.2,372.6 554.7,316.1 554.7,372.6 	"/>
	<linearGradient id="SVGID_5_" gradientUnits="userSpaceOnUse" x1="303.4691" y1="464.4622" x2="454.8024" y2="435.7955">
		<stop  offset="0.4161" style="stop-color:#FDC546"/>
		<stop  offset="0.9557" style="stop-color:#D4783C"/>
	</linearGradient>
	<polygon class="st6" points="384.7,451.6 441.2,425.1 441.2,451.6 	"/>
	<linearGradient id="SVGID_6_" gradientUnits="userSpaceOnUse" x1="452.0397" y1="300.8073" x2="606.0397" y2="246.1406">
		<stop  offset="0.2809" style="stop-color:#FDC546"/>
		<stop  offset="0.8876" style="stop-color:#D4783C"/>
	</linearGradient>
	<polygon class="st7" points="441.2,292.6 554.7,236.1 554.7,292.6 	"/>
	<linearGradient id="SVGID_7_" gradientUnits="userSpaceOnUse" x1="293.1573" y1="328.5053" x2="369.1573" y2="328.5053">
		<stop  offset="0.2809" style="stop-color:#FDC546"/>
		<stop  offset="0.8876" style="stop-color:#D4783C"/>
	</linearGradient>
	<polygon class="st8" points="330.2,343.9 369.2,344.4 369.2,312.6 293.2,313.1 	"/>
	<linearGradient id="SVGID_8_" gradientUnits="userSpaceOnUse" x1="196.4229" y1="346.4613" x2="308.4229" y2="383.128">
		<stop  offset="0.2809" style="stop-color:#FDC546"/>
		<stop  offset="0.8876" style="stop-color:#D4783C"/>
	</linearGradient>
	<polygon class="st9" points="293.2,394.6 293.2,361.6 256.2,361.6 	"/>
	<linearGradient id="SVGID_9_" gradientUnits="userSpaceOnUse" x1="332.3648" y1="431.2981" x2="378.3648" y2="437.9647">
		<stop  offset="0.1206" style="stop-color:#FDC546"/>
		<stop  offset="0.7819" style="stop-color:#D4783C"/>
	</linearGradient>
	<polygon class="st10" points="330.2,421.6 369.2,421.6 369.2,451.6 	"/>
	<linearGradient id="SVGID_10_" gradientUnits="userSpaceOnUse" x1="303.6426" y1="280.8605" x2="410.5433" y2="197.9439">
		<stop  offset="0.2809" style="stop-color:#FDC546"/>
		<stop  offset="0.8876" style="stop-color:#D4783C"/>
	</linearGradient>
	<polygon class="st11" points="331.2,285.6 369.2,285.6 369.2,233.4 331.2,203.9 	"/>
	<linearGradient id="SVGID_11_" gradientUnits="userSpaceOnUse" x1="280.4082" y1="374.7368" x2="369.7416" y2="385.4034">
		<stop  offset="9.696903e-02" style="stop-color:#FDC546"/>
		<stop  offset="0.926" style="stop-color:#AD513C"/>
	</linearGradient>
	<polygon class="st12" points="330.2,343.9 369.2,344.4 369.2,421.6 330.2,421.6 	"/>
</g>
</svg>
